<?xml version="1.0" encoding="UTF-8"?>
<!DOCTYPE svg PUBLIC "-//W3C//DTD SVG 1.1//EN" "http://www.w3.org/Graphics/SVG/1.1/DTD/svg11.dtd">
<!-- Creator: CorelDRAW 2017 -->
<svg xmlns="http://www.w3.org/2000/svg" xml:space="preserve" width="4.25in" height="4.25in" version="1.1" style="shape-rendering:geometricPrecision; text-rendering:geometricPrecision; image-rendering:optimizeQuality; fill-rule:evenodd; clip-rule:evenodd"
viewBox="0 0 1431 1431"
 xmlns:xlink="http://www.w3.org/1999/xlink">
 <defs>
  <style type="text/css">
   <![CDATA[
    .fil5 {fill:none}
    .fil0 {fill:#373435}
    .fil3 {fill:#302E2F}
    .fil2 {fill:#F8F8F8}
    .fil4 {fill:#FEFEFE}
    .fil1 {fill:#FFEA00}
   ]]>
  </style>
   <clipPath id="id0">
    <path d="M716 34c377,0 682,305 682,682 0,377 -305,682 -682,682 -377,0 -682,-305 -682,-682 0,-377 305,-682 682,-682z"/>
   </clipPath>
     <clipPath id="id1">
      <path d="M313 165l805 0c92,67 166,157 215,261l0 580c-49,104 -123,193 -215,261l-805 0c-92,-67 -166,-157 -215,-261l0 -580c49,-104 123,-193 215,-261z"/>
     </clipPath>
     <clipPath id="id2">
      <path d="M716 34c377,0 682,305 682,682 0,377 -305,682 -682,682 -377,0 -682,-305 -682,-682 0,-377 305,-682 682,-682z"/>
     </clipPath>
 </defs>
 <g id="Layer_x0020_1">
  <metadata id="CorelCorpID_0Corel-Layer"/>
  <circle class="fil0" cx="716" cy="716" r="716"/>
  <path class="fil1" d="M716 34c377,0 682,305 682,682 0,377 -305,682 -682,682 -377,0 -682,-305 -682,-682 0,-377 305,-682 682,-682z"/>
  <g style="clip-path:url(#id0)">
   <g id="_2092050770624">
    <g>
    </g>
    <g style="clip-path:url(#id1)">
     <image x="98" y="165" width="1235" height="1101" xlink:href="opt1_Images\opt1_ImgID1.png"/>
    </g>
    <g style="clip-path:url(#id2)">
     <g>
      <path class="fil2" d="M675 929c14,3 26,8 41,13 19,6 29,4 34,21 -21,6 -65,-19 -92,-23 -10,13 -17,15 -25,31 38,9 130,49 162,50 9,-2 136,-133 153,-151 106,-106 92,-70 91,-174 0,-19 -4,-22 9,-31 11,11 7,23 7,41 13,-6 10,-5 21,-15 6,-7 10,-10 16,-17 35,-35 86,-73 86,-110 0,-90 6,-75 -37,-118 -16,-16 -29,-29 -45,-46 -87,-91 -65,-80 -160,-80 -37,0 -48,22 -67,41 -15,15 -42,37 -51,56 20,0 32,-4 41,7 -14,18 -94,7 -123,7 -58,0 -95,-9 -118,16 -21,23 -43,44 -66,67 -48,48 -62,44 -52,112 31,-9 159,-49 176,-62 3,-21 -4,-44 10,-54 15,15 7,57 -4,68 -13,12 -272,94 -309,106 -35,12 -94,28 -123,42l0 80c81,42 118,11 201,-16 32,-11 180,-70 200,-55 3,3 6,-3 7,12 2,18 -121,131 -133,143 -26,26 -49,49 -75,75 -18,18 -64,53 -64,85 0,55 2,45 48,60 32,11 36,-3 52,-19l214 -214c22,-22 28,-36 46,-34 0,24 -57,54 -74,86z"/>
      <path class="fil3" d="M585 791c3,27 13,8 -35,56 -38,38 -48,45 -48,-19 0,-22 4,-28 16,-39 15,-14 17,-12 39,-19 23,-8 67,-26 91,-27 -6,16 -13,19 -25,31 -16,17 -9,16 -38,16zm353 -472c95,0 73,-10 160,80 16,17 29,30 45,46 43,43 37,28 37,118 0,37 -52,76 -86,110 -7,7 -10,10 -16,17 -10,10 -8,9 -21,15 0,-17 4,-30 -7,-41 -12,9 -9,11 -9,31 1,105 15,69 -91,174 -18,18 -145,148 -153,151 -33,-1 -124,-40 -162,-50 8,-16 15,-17 25,-31 26,4 71,29 92,23 -5,-17 -15,-15 -34,-21 -14,-5 -27,-10 -41,-13 17,-32 74,-63 74,-86 -18,-2 -24,12 -46,34l-214 214c-16,16 -20,29 -52,19 -46,-16 -48,-5 -48,-60 0,-32 47,-68 64,-85 26,-26 49,-49 75,-75 12,-12 134,-125 133,-143 -1,-15 -4,-9 -7,-12 -20,-15 -169,45 -200,55 -83,28 -119,58 -201,16l0 -80c29,-14 88,-31 123,-42 36,-12 296,-94 309,-106 11,-10 19,-53 4,-68 -14,10 -6,33 -10,54 -17,13 -145,53 -176,62 -10,-68 4,-64 52,-112 23,-23 45,-43 66,-67 22,-25 60,-16 118,-16 29,0 109,11 123,-7 -10,-11 -21,-7 -41,-7 9,-19 36,-41 51,-56 19,-19 30,-41 67,-41zm-573 713c0,32 -6,66 17,83 10,7 57,23 71,24 30,3 45,-21 59,-35 121,-121 94,-116 167,-92 38,13 114,51 144,22 23,-22 232,-226 240,-246 17,-44 -15,-34 26,-74 23,-23 77,-84 100,-97 10,-28 17,-20 17,-67 0,-98 10,-69 -91,-170 -96,-96 -68,-89 -174,-88 -37,0 -48,8 -66,26 -14,14 -75,80 -90,84 -39,10 -130,-10 -166,9 -20,11 -70,65 -89,85 -42,42 -55,37 -56,123 -18,12 -116,41 -144,50 -25,8 -47,15 -72,24 -32,11 -34,28 -34,64 0,33 -4,58 22,73 11,6 62,23 77,23 33,1 114,-37 151,-44 0,38 -6,56 12,81 -31,45 -113,98 -123,141z"/>
      <path class="fil4" d="M585 791c28,0 21,0 38,-16 12,-12 19,-15 25,-31 -24,1 -68,19 -91,27 -22,7 -24,5 -39,19 -12,12 -16,17 -16,39 0,63 10,57 48,19 48,-48 38,-29 35,-56z"/>
     </g>
    </g>
   </g>
  </g>
  <path class="fil5" d="M716 34c377,0 682,305 682,682 0,377 -305,682 -682,682 -377,0 -682,-305 -682,-682 0,-377 305,-682 682,-682z"/>
 </g>
</svg>
