<?xml version="1.0" encoding="UTF-8"?>
<!DOCTYPE svg PUBLIC "-//W3C//DTD SVG 1.1//EN" "http://www.w3.org/Graphics/SVG/1.1/DTD/svg11.dtd">
<!-- Creator: CorelDRAW 2017 -->
<svg xmlns="http://www.w3.org/2000/svg" xml:space="preserve" width="4.25in" height="4.25in" version="1.1" style="shape-rendering:geometricPrecision; text-rendering:geometricPrecision; image-rendering:optimizeQuality; fill-rule:evenodd; clip-rule:evenodd"
viewBox="0 0 820 820"
 xmlns:xlink="http://www.w3.org/1999/xlink">
 <defs>
  <style type="text/css">
   <![CDATA[
    .fil5 {fill:none}
    .fil0 {fill:#373435}
    .fil3 {fill:#302E2F}
    .fil4 {fill:#323031}
    .fil2 {fill:#F8F8F8}
    .fil1 {fill:#FFEA00}
   ]]>
  </style>
   <clipPath id="id0">
    <path d="M410 19c216,0 391,175 391,391 0,216 -175,391 -391,391 -216,0 -391,-175 -391,-391 0,-216 175,-391 391,-391z"/>
   </clipPath>
     <clipPath id="id1">
      <path d="M181 94l459 0c45,33 83,76 111,125l0 383c-28,49 -66,92 -111,125l-459 0c-45,-33 -83,-76 -111,-125l0 -383c28,-49 66,-92 111,-125z"/>
     </clipPath>
     <clipPath id="id2">
      <path d="M410 19c216,0 391,175 391,391 0,216 -175,391 -391,391 -216,0 -391,-175 -391,-391 0,-216 175,-391 391,-391z"/>
     </clipPath>
 </defs>
 <g id="Layer_x0020_1">
  <metadata id="CorelCorpID_0Corel-Layer"/>
  <circle class="fil0" cx="410" cy="410" r="410"/>
  <path class="fil1" d="M410 19c216,0 391,175 391,391 0,216 -175,391 -391,391 -216,0 -391,-175 -391,-391 0,-216 175,-391 391,-391z"/>
  <g style="clip-path:url(#id0)">
   <g id="_2092050773632">
    <g>
    </g>
    <g style="clip-path:url(#id1)">
     <image x="69" y="94" width="682" height="633" xlink:href="opt2_Images\opt2_ImgID1.png"/>
    </g>
    <g style="clip-path:url(#id2)">
     <g>
      <path class="fil2" d="M239 371c17,-10 83,34 105,25 4,-1 15,-14 18,-17 7,-7 11,-11 11,-25 1,-16 -7,-55 6,-61 4,6 3,3 3,13 0,58 6,60 -21,87 -12,12 -16,19 -40,11 -15,-5 -79,-22 -83,-33zm189 -126c14,0 22,-4 27,7 -21,11 -191,-6 -210,7l-53 54c-23,23 -39,26 -31,74l16 6c0,-35 -3,-40 16,-60 8,-8 30,-34 42,-36 11,-2 67,19 85,25 22,7 23,4 27,14 -3,2 -1,1 -6,1 -5,0 -3,0 -8,-1l-44 -15c-16,-5 -46,-21 -59,-11 -3,3 -36,36 -38,40 -8,12 -5,54 -4,71l174 58c11,4 19,3 21,13 -14,8 -140,-47 -179,-54 1,59 -10,45 44,63 16,5 30,10 46,15 16,5 83,22 89,34 -9,7 -62,-15 -80,-21 -25,-8 -55,-20 -80,-26l0 36c13,8 97,34 122,42 11,4 34,7 38,18 -13,8 -119,-36 -143,-42 0,34 -1,25 76,51 20,7 80,29 97,30 7,-2 132,-130 148,-146 15,-15 11,-30 10,-62 0,-12 -3,-17 5,-22 8,7 5,15 5,26 8,-6 76,-74 78,-79 4,-12 4,-60 -3,-69 -6,-9 -30,-30 -39,-39 -50,-50 -48,-63 -92,-63 -47,0 -35,-2 -78,40 -8,8 -15,13 -19,22z"/>
      <path class="fil3" d="M204 437c38,7 165,62 179,54 -3,-10 -10,-9 -21,-13l-174 -58c-2,-16 -4,-58 4,-71 2,-3 35,-37 38,-40 13,-10 43,6 59,11l44 15c5,1 3,1 8,1 5,0 3,0 6,-1 -4,-10 -5,-7 -27,-14 -18,-6 -74,-27 -85,-25 -11,2 -33,28 -42,36 -20,20 -16,24 -16,60l-16 -6c-8,-48 9,-52 31,-74l53 -54c18,-13 188,4 210,-7 -4,-10 -12,-7 -27,-7 5,-10 12,-15 19,-22 43,-42 30,-40 78,-40 44,0 42,12 92,63 9,9 33,30 39,39 6,9 7,58 3,69 -2,6 -70,73 -78,79 0,-11 3,-20 -5,-26 -8,6 -6,10 -5,22 0,32 5,47 -10,62 -16,16 -141,144 -148,146 -17,-1 -77,-24 -97,-30 -77,-26 -76,-16 -76,-51 24,5 130,50 143,42 -4,-11 -27,-14 -38,-18 -25,-8 -110,-35 -122,-42l0 -36c25,6 55,18 80,26 18,6 71,28 80,21 -6,-12 -72,-29 -89,-34 -16,-5 -30,-10 -46,-15 -54,-18 -43,-5 -44,-63zm3 106c6,9 5,11 16,14 0,45 8,40 47,52 168,56 134,62 202,-6 34,-34 66,-65 99,-99 34,-34 -1,-33 32,-67 13,-13 38,-42 52,-50 6,-12 20,-17 22,-41 1,-13 1,-51 -2,-62 -4,-13 -51,-56 -63,-68 -43,-43 -40,-50 -81,-50 -58,0 -47,-3 -90,41 -40,40 -26,31 -100,31 -119,0 -87,-13 -181,82 -14,14 -16,21 -16,48 0,26 4,34 27,40 2,31 13,21 18,35 0,37 -6,44 18,62l2 38z"/>
      <path class="fil4" d="M239 371c5,11 69,28 83,33 23,8 28,0 40,-11 27,-27 21,-29 21,-87 0,-10 1,-7 -3,-13 -13,6 -5,45 -6,61 -1,14 -5,18 -11,25 -3,3 -15,15 -18,17 -22,9 -88,-35 -105,-25z"/>
     </g>
    </g>
   </g>
  </g>
  <path class="fil5" d="M410 19c216,0 391,175 391,391 0,216 -175,391 -391,391 -216,0 -391,-175 -391,-391 0,-216 175,-391 391,-391z"/>
 </g>
</svg>
