<?xml version="1.0" encoding="UTF-8"?>
<!DOCTYPE svg PUBLIC "-//W3C//DTD SVG 1.1//EN" "http://www.w3.org/Graphics/SVG/1.1/DTD/svg11.dtd">
<!-- Creator: CorelDRAW 2017 -->
<svg xmlns="http://www.w3.org/2000/svg" xml:space="preserve" width="4.25in" height="4.25in" version="1.1" style="shape-rendering:geometricPrecision; text-rendering:geometricPrecision; image-rendering:optimizeQuality; fill-rule:evenodd; clip-rule:evenodd"
viewBox="0 0 585 585"
 xmlns:xlink="http://www.w3.org/1999/xlink">
 <defs>
  <style type="text/css">
   <![CDATA[
    .fil4 {fill:none}
    .fil0 {fill:#373435}
    .fil3 {fill:#302E2F}
    .fil2 {fill:#FCFCFC}
    .fil1 {fill:#FFEA00}
   ]]>
  </style>
   <clipPath id="id0">
    <path d="M292 14c154,0 279,125 279,279 0,154 -125,279 -279,279 -154,0 -279,-125 -279,-279 0,-154 125,-279 279,-279z"/>
   </clipPath>
     <clipPath id="id1">
      <path d="M110 82l364 0c28,24 51,54 68,88l0 246c-17,34 -40,63 -68,88l-364 0c-28,-24 -51,-54 -68,-88l0 -246c17,-34 40,-63 68,-88z"/>
     </clipPath>
     <clipPath id="id2">
      <path d="M292 14c154,0 279,125 279,279 0,154 -125,279 -279,279 -154,0 -279,-125 -279,-279 0,-154 125,-279 279,-279z"/>
     </clipPath>
 </defs>
 <g id="Layer_x0020_1">
  <metadata id="CorelCorpID_0Corel-Layer"/>
  <circle class="fil0" cx="292" cy="292" r="292"/>
  <path class="fil1" d="M292 14c154,0 279,125 279,279 0,154 -125,279 -279,279 -154,0 -279,-125 -279,-279 0,-154 125,-279 279,-279z"/>
  <g style="clip-path:url(#id0)">
   <g id="_2092050777152">
    <g>
    </g>
    <g style="clip-path:url(#id1)">
     <image x="42" y="82" width="500" height="422" xlink:href="opt3_Images\opt3_ImgID1.png"/>
    </g>
    <g style="clip-path:url(#id2)">
     <g>
      <path class="fil2" d="M201 227l1 17c5,3 17,7 23,8 7,-7 45,-48 52,-48 2,6 -10,15 -19,24l-139 139c-14,14 -18,12 -18,35 0,12 5,11 15,14 28,9 19,-7 33,-21l61 -61c5,-5 9,-13 18,-13 -1,7 -5,9 -9,13l-56 56c-15,15 -17,12 -17,35 0,12 6,10 17,14 13,5 15,2 22,-5 29,-30 10,-18 27,-36l47 -47c5,-5 11,-14 19,-15 -1,9 -30,34 -37,41 -27,27 -34,27 -34,52 0,8 1,9 8,12 20,7 16,4 40,-19 14,-14 1,-9 19,-27l35 -35c5,-5 7,-9 14,-9 -1,7 -23,26 -29,32 -16,16 -26,21 -26,37 0,13 16,17 25,7 8,-8 15,-15 23,-23l91 -91c32,-32 17,-21 20,-58 1,-9 -1,-6 5,-8l2 17c6,-3 21,-19 27,-26 23,-23 23,-18 22,-62 -8,-6 -60,-21 -74,-26 -10,-3 -28,-13 -36,-7 -9,6 -14,21 -30,22 -15,1 -34,0 -50,0 -17,0 -35,-3 -45,6 -9,9 -17,17 -26,26 -8,8 -21,16 -21,31z"/>
      <path class="fil3" d="M201 227c0,-15 14,-23 21,-31 9,-9 17,-17 26,-26 10,-9 28,-6 45,-6 15,0 35,1 50,0 16,-1 20,-15 30,-22 8,-5 27,4 36,7 15,5 66,20 74,26 2,44 2,39 -22,62 -6,6 -21,22 -27,26l-2 -17c-6,2 -4,-1 -5,8 -3,37 12,26 -20,58l-91 91c-8,8 -15,15 -23,23 -10,10 -25,6 -25,-7 0,-16 10,-22 26,-37 6,-6 28,-25 29,-32 -8,0 -10,4 -14,9l-35 35c-18,18 -5,13 -19,27 -23,23 -19,26 -40,19 -7,-3 -8,-3 -8,-12 0,-25 8,-25 34,-52 7,-7 36,-32 37,-41 -8,1 -14,10 -19,15l-47 47c-17,17 2,6 -27,36 -7,7 -9,9 -22,5 -11,-4 -17,-3 -17,-14 0,-23 3,-21 17,-35l56 -56c4,-4 8,-6 9,-13 -9,0 -13,8 -18,13l-61 61c-14,14 -5,30 -33,21 -10,-3 -15,-2 -15,-14 0,-23 4,-21 18,-35l139 -139c9,-9 21,-17 19,-24 -7,0 -45,41 -52,48 -6,-1 -18,-5 -23,-8l-1 -17zm10 32c-11,14 -66,67 -83,84 -9,9 -36,31 -37,47 -1,15 -1,27 9,32 9,4 24,9 35,8 2,15 12,16 27,20 18,6 25,-3 33,-12 1,1 0,0 2,3 7,9 19,15 31,15 11,0 26,-17 30,-23 31,25 39,6 74,-29 22,-22 42,-42 64,-64 16,-16 42,-36 43,-52 1,-17 0,-13 10,-22 47,-46 46,-38 46,-82 0,-22 -16,-22 -35,-28 -16,-5 -31,-10 -47,-16 -17,-6 -33,-15 -47,-4 -22,18 -5,19 -46,19 -16,0 -48,-2 -63,0 -13,2 -62,53 -65,63 -2,6 -2,23 0,28 3,9 10,10 19,13z"/>
     </g>
    </g>
   </g>
  </g>
  <path class="fil4" d="M292 14c154,0 279,125 279,279 0,154 -125,279 -279,279 -154,0 -279,-125 -279,-279 0,-154 125,-279 279,-279z"/>
 </g>
</svg>
