<?xml version="1.0" encoding="UTF-8"?>
<!DOCTYPE svg PUBLIC "-//W3C//DTD SVG 1.1//EN" "http://www.w3.org/Graphics/SVG/1.1/DTD/svg11.dtd">
<!-- Creator: CorelDRAW 2017 -->
<svg xmlns="http://www.w3.org/2000/svg" xml:space="preserve" width="4.4in" height="4.4in" version="1.1" style="shape-rendering:geometricPrecision; text-rendering:geometricPrecision; image-rendering:optimizeQuality; fill-rule:evenodd; clip-rule:evenodd"
viewBox="0 0 7163 7163"
 xmlns:xlink="http://www.w3.org/1999/xlink">
 <defs>
  <style type="text/css">
   <![CDATA[
    .fil5 {fill:none}
    .fil0 {fill:#373435}
    .fil3 {fill:#302E2F}
    .fil7 {fill:#323031}
    .fil2 {fill:#F8F8F8}
    .fil8 {fill:#FCFCFC}
    .fil4 {fill:#FEFEFE}
    .fil1 {fill:#FFEA00}
    .fil6 {fill:#FFEA00}
   ]]>
  </style>
   <clipPath id="id0">
    <path d="M0 0l7163 0 0 7163 -7163 0 0 -7163z"/>
   </clipPath>
      <clipPath id="id1">
       <path d="M2356 3586c583,0 1056,473 1056,1056 0,583 -473,1056 -1056,1056 -583,0 -1056,-473 -1056,-1056 0,-583 473,-1056 1056,-1056z"/>
      </clipPath>
        <clipPath id="id2">
         <path d="M1733 3790l1247 0c142,104 257,243 333,403l0 898c-76,161 -191,299 -333,403l-1247 0c-142,-104 -257,-243 -333,-403l0 -898c76,-161 191,-299 333,-403z"/>
        </clipPath>
        <clipPath id="id3">
         <path d="M2356 3586c583,0 1056,473 1056,1056 0,583 -473,1056 -1056,1056 -583,0 -1056,-473 -1056,-1056 0,-583 473,-1056 1056,-1056z"/>
        </clipPath>
      <clipPath id="id4">
       <path d="M4807 3586c583,0 1056,473 1056,1056 0,583 -473,1056 -1056,1056 -583,0 -1056,-473 -1056,-1056 0,-583 473,-1056 1056,-1056z"/>
      </clipPath>
        <clipPath id="id5">
         <path d="M4187 3788l1241 0c123,89 226,204 300,337l0 1035c-75,133 -178,248 -300,337l-1241 0c-123,-89 -226,-204 -300,-337l0 -1035c75,-133 178,-248 300,-337z"/>
        </clipPath>
        <clipPath id="id6">
         <path d="M4807 3586c583,0 1056,473 1056,1056 0,583 -473,1056 -1056,1056 -583,0 -1056,-473 -1056,-1056 0,-583 473,-1056 1056,-1056z"/>
        </clipPath>
      <clipPath id="id7">
       <path d="M3582 1466c583,0 1056,473 1056,1056 0,583 -473,1056 -1056,1056 -583,0 -1056,-473 -1056,-1056 0,-583 473,-1056 1056,-1056z"/>
      </clipPath>
        <clipPath id="id8">
         <path d="M2892 1722l1380 0c107,92 194,205 257,333l0 934c-63,128 -151,241 -257,333l-1380 0c-107,-92 -194,-205 -257,-333l0 -934c63,-128 151,-241 257,-333z"/>
        </clipPath>
        <clipPath id="id9">
         <path d="M3582 1466c583,0 1056,473 1056,1056 0,583 -473,1056 -1056,1056 -583,0 -1056,-473 -1056,-1056 0,-583 473,-1056 1056,-1056z"/>
        </clipPath>
 </defs>
 <g id="Layer_x0020_1">
  <metadata id="CorelCorpID_0Corel-Layer"/>
  <g style="clip-path:url(#id0)">
   <image x="0" y="0" width="7163" height="7163" xlink:href="r-p-s_Images\r-p-s_ImgID1.png"/>
  </g>
  <g id="_2057154264640">
   <rect class="fil0" x="827" y="827" width="5510" height="5510" rx="1296" ry="1296"/>
   <g>
    <g>
     <circle class="fil0" cx="2356" cy="4642" r="1108"/>
     <path class="fil1" d="M2356 3586c583,0 1056,473 1056,1056 0,583 -473,1056 -1056,1056 -583,0 -1056,-473 -1056,-1056 0,-583 473,-1056 1056,-1056z"/>
     <g style="clip-path:url(#id1)">
      <g>
       <g>
       </g>
       <g style="clip-path:url(#id2)">
        <image x="1400" y="3790" width="1912" height="1705" xlink:href="r-p-s_Images\r-p-s_ImgID2.png"/>
       </g>
       <g style="clip-path:url(#id3)">
        <g>
         <path class="fil2" d="M2294 4973c21,5 41,13 63,20 30,10 44,6 53,33 -33,10 -101,-30 -142,-36 -15,21 -26,23 -38,47 59,15 201,76 252,77 14,-4 210,-206 238,-233 164,-164 142,-108 141,-270 0,-30 -6,-34 13,-47 18,17 11,36 11,63 20,-9 16,-8 32,-24 10,-10 15,-16 25,-26 54,-54 134,-113 134,-171 0,-140 10,-116 -57,-183 -25,-25 -46,-45 -70,-71 -135,-140 -101,-125 -248,-125 -58,0 -74,34 -104,63 -23,23 -65,57 -79,86 31,0 49,-7 64,11 -21,28 -146,11 -190,11 -89,0 -148,-14 -182,25 -32,36 -67,68 -102,103 -74,74 -96,68 -81,173 48,-13 246,-75 273,-96 5,-33 -7,-68 15,-84 23,23 11,89 -6,105 -20,19 -422,146 -478,164 -55,18 -146,43 -191,66l0 125c126,65 183,18 311,-25 49,-16 279,-109 310,-85 5,4 9,-5 11,19 3,28 -187,203 -205,222 -40,40 -75,75 -116,116 -27,27 -99,82 -99,132 0,85 3,69 74,93 49,17 56,-4 80,-29l331 -331c34,-34 44,-56 71,-52 0,37 -88,84 -114,134z"/>
         <path class="fil3" d="M2153 4759c5,42 19,13 -54,87 -59,59 -75,69 -75,-29 0,-34 6,-43 24,-61 23,-22 27,-19 60,-30 36,-12 104,-40 141,-41 -9,25 -20,29 -38,48 -25,26 -14,25 -58,25zm546 -731c147,0 113,-16 248,125 25,26 45,46 70,71 67,67 57,44 57,183 0,58 -80,117 -134,171 -10,10 -15,16 -25,26 -16,16 -12,15 -32,24 0,-27 7,-46 -11,-63 -19,13 -14,18 -13,47 1,162 23,106 -141,270 -27,27 -224,229 -238,233 -51,-1 -192,-63 -252,-77 12,-24 24,-27 38,-47 41,6 109,46 142,36 -8,-27 -23,-23 -53,-33 -22,-7 -42,-15 -63,-20 26,-50 114,-97 114,-134 -27,-3 -37,18 -71,52l-331 331c-24,25 -31,45 -80,29 -71,-24 -74,-8 -74,-93 0,-50 72,-105 99,-132 40,-40 76,-75 116,-116 19,-19 208,-193 205,-222 -2,-24 -6,-14 -11,-19 -31,-23 -261,69 -310,85 -128,43 -185,89 -311,25l0 -125c45,-22 136,-47 191,-66 56,-19 458,-146 478,-164 17,-16 30,-82 6,-105 -22,15 -10,51 -15,84 -27,21 -225,82 -273,96 -15,-105 6,-98 81,-173 35,-35 70,-67 102,-103 34,-39 93,-25 182,-25 44,0 169,16 190,-11 -15,-18 -33,-11 -64,-11 14,-29 55,-63 79,-86 29,-29 46,-63 104,-63zm-887 1104c0,50 -10,102 27,128 16,11 88,36 110,38 47,5 70,-33 91,-54 187,-187 146,-180 259,-142 60,20 176,79 223,34 35,-34 360,-350 371,-380 26,-69 -23,-52 40,-114 36,-35 119,-130 155,-150 15,-43 27,-31 26,-104 0,-152 16,-107 -140,-263 -149,-149 -105,-138 -269,-137 -57,0 -74,12 -102,40 -22,22 -115,124 -139,130 -60,15 -202,-16 -257,14 -32,17 -108,101 -138,131 -65,65 -85,58 -86,190 -27,19 -179,63 -223,78 -38,13 -73,23 -111,37 -49,17 -52,43 -52,100 0,51 -6,90 33,112 17,9 96,35 119,36 51,2 176,-57 234,-68 1,59 -9,86 19,126 -48,69 -174,151 -190,218z"/>
         <path class="fil4" d="M2153 4759c44,0 33,1 58,-25 18,-19 29,-23 38,-48 -37,1 -106,30 -141,41 -33,11 -37,8 -60,30 -18,18 -24,27 -24,61 0,98 16,88 75,29 74,-74 59,-45 54,-87z"/>
        </g>
       </g>
      </g>
     </g>
     <path class="fil5" d="M2356 3586c583,0 1056,473 1056,1056 0,583 -473,1056 -1056,1056 -583,0 -1056,-473 -1056,-1056 0,-583 473,-1056 1056,-1056z"/>
    </g>
    <g>
     <circle class="fil0" cx="4807" cy="4642" r="1108"/>
     <path class="fil6" d="M4807 3586c583,0 1056,473 1056,1056 0,583 -473,1056 -1056,1056 -583,0 -1056,-473 -1056,-1056 0,-583 473,-1056 1056,-1056z"/>
     <g style="clip-path:url(#id4)">
      <g>
       <g>
       </g>
       <g style="clip-path:url(#id5)">
        <image x="3886" y="3788" width="1842" height="1709" xlink:href="r-p-s_Images\r-p-s_ImgID3.png"/>
       </g>
       <g style="clip-path:url(#id6)">
        <g>
         <path class="fil2" d="M4346 4538c46,-26 223,93 283,68 10,-4 41,-37 50,-46 19,-19 29,-28 31,-67 3,-45 -18,-148 17,-165 10,16 8,8 8,34 0,156 16,161 -56,234 -31,32 -44,52 -107,31 -40,-13 -213,-60 -225,-89zm510 -339c39,1 61,-10 72,18 -58,31 -516,-17 -566,19l-144 145c-61,61 -106,69 -85,200l43 15c0,-96 -9,-109 44,-162 22,-22 82,-91 112,-98 31,-7 181,50 231,67 60,20 63,11 73,38 -9,4 -3,4 -17,4 -13,0 -8,0 -22,-3l-120 -41c-43,-14 -124,-55 -160,-29 -9,7 -98,98 -104,107 -21,33 -14,147 -10,191l470 158c30,10 51,8 58,34 -37,21 -379,-128 -483,-146 1,159 -27,123 119,172 43,14 82,27 125,42 44,15 224,60 240,92 -24,18 -168,-41 -217,-58 -68,-23 -149,-54 -216,-71l-1 97c34,21 262,92 330,115 31,10 92,18 103,47 -35,23 -321,-98 -386,-113 0,93 -3,67 205,136 53,18 215,79 262,81 18,-4 357,-350 400,-393 40,-40 29,-82 27,-168 0,-32 -7,-45 15,-60 20,18 12,41 12,71 23,-17 206,-199 211,-214 12,-32 10,-163 -7,-187 -16,-23 -80,-81 -105,-105 -136,-136 -131,-170 -250,-169 -128,0 -95,-7 -210,108 -21,21 -40,34 -53,60z"/>
         <path class="fil3" d="M4250 4716c104,18 446,167 483,146 -7,-26 -28,-25 -58,-34l-470 -158c-5,-44 -11,-158 10,-191 6,-9 94,-100 104,-107 35,-26 117,15 160,29l120 41c14,4 9,4 22,3 13,0 8,0 17,-4 -10,-27 -13,-19 -73,-38 -50,-16 -200,-73 -231,-67 -31,7 -90,76 -112,98 -53,53 -44,66 -44,162l-43 -15c-21,-131 24,-139 85,-200l144 -145c50,-36 508,12 566,-19 -11,-28 -33,-18 -72,-18 13,-26 32,-40 53,-60 115,-115 82,-108 210,-108 119,0 114,34 250,169 25,25 89,82 105,105 17,25 19,156 7,187 -6,15 -189,198 -211,214 0,-30 8,-53 -12,-71 -22,15 -15,28 -15,60 1,87 13,128 -27,168 -43,43 -382,389 -400,393 -47,-2 -209,-64 -262,-81 -208,-69 -205,-43 -205,-136 65,15 351,135 386,113 -11,-29 -72,-37 -103,-47 -69,-23 -296,-94 -330,-115l1 -97c67,17 148,48 216,71 49,16 193,75 217,58 -16,-32 -195,-77 -240,-92 -43,-14 -82,-27 -125,-42 -146,-49 -117,-12 -119,-172zm8 286c15,25 14,29 44,38 1,122 22,107 127,142 454,151 361,169 545,-15 91,-91 178,-176 268,-268 92,-93 -4,-90 88,-180 36,-36 103,-114 141,-136 17,-34 55,-47 58,-112 2,-36 3,-138 -6,-166 -11,-36 -138,-151 -171,-184 -118,-118 -108,-136 -220,-136 -157,1 -126,-7 -244,111 -107,107 -69,83 -270,83 -323,0 -235,-36 -490,222 -37,37 -45,57 -45,128 0,69 12,92 72,108 4,84 35,56 49,95 0,100 -16,120 48,169l5 102z"/>
         <path class="fil7" d="M4346 4538c12,29 186,76 225,89 63,21 76,1 107,-31 72,-73 56,-78 56,-234 0,-26 2,-18 -8,-34 -35,17 -15,120 -17,165 -2,39 -12,48 -31,67 -9,9 -40,42 -50,46 -60,25 -237,-95 -283,-68z"/>
        </g>
       </g>
      </g>
     </g>
     <path class="fil5" d="M4807 3586c583,0 1056,473 1056,1056 0,583 -473,1056 -1056,1056 -583,0 -1056,-473 -1056,-1056 0,-583 473,-1056 1056,-1056z"/>
    </g>
    <g>
     <circle class="fil0" cx="3582" cy="2521" r="1108"/>
     <path class="fil6" d="M3582 1466c583,0 1056,473 1056,1056 0,583 -473,1056 -1056,1056 -583,0 -1056,-473 -1056,-1056 0,-583 473,-1056 1056,-1056z"/>
     <g style="clip-path:url(#id7)">
      <g>
       <g>
       </g>
       <g style="clip-path:url(#id8)">
        <image x="2634" y="1722" width="1895" height="1599" xlink:href="r-p-s_Images\r-p-s_ImgID4.png"/>
       </g>
       <g style="clip-path:url(#id9)">
        <g>
         <path class="fil8" d="M3237 2273l2 63c19,10 63,26 88,30 27,-28 169,-183 197,-184 7,24 -38,56 -72,90l-527 527c-52,52 -66,46 -66,132 0,46 17,42 56,54 106,36 71,-26 123,-79l232 -232c20,-20 35,-49 69,-51 -3,26 -19,33 -34,48l-213 213c-55,55 -66,47 -66,134 0,44 22,39 64,54 50,17 56,9 83,-18 111,-113 37,-69 103,-135l179 -179c19,-19 40,-52 72,-55 -4,33 -112,128 -140,156 -101,101 -130,102 -130,196 0,31 5,35 31,45 77,28 62,15 150,-71 54,-52 3,-35 72,-103l132 -132c18,-18 25,-34 54,-34 -4,27 -87,99 -110,122 -59,59 -98,80 -98,141 0,50 59,64 96,26 30,-31 57,-57 88,-88l345 -345c122,-122 66,-80 77,-221 3,-33 -3,-22 19,-30l6 64c25,-13 78,-73 102,-97 88,-88 88,-68 82,-235 -30,-25 -226,-81 -282,-100 -36,-12 -108,-48 -137,-28 -36,25 -51,78 -112,83 -57,4 -130,0 -188,0 -65,0 -134,-12 -171,23 -34,33 -63,64 -97,97 -28,28 -80,61 -80,117z"/>
         <path class="fil3" d="M3237 2273c0,-56 51,-89 80,-117 34,-34 63,-64 97,-97 37,-35 106,-23 171,-23 59,0 131,4 188,0 61,-4 76,-58 112,-83 29,-20 101,15 137,28 56,19 252,75 282,100 6,167 6,147 -82,235 -24,24 -78,85 -102,97l-6 -64c-22,8 -16,-2 -19,30 -12,140 45,99 -77,221l-345 345c-31,31 -57,57 -88,88 -37,39 -96,24 -96,-26 0,-61 39,-82 98,-141 23,-23 106,-95 110,-122 -29,0 -36,16 -54,34l-132 132c-69,68 -19,51 -72,103 -88,86 -72,99 -150,71 -27,-10 -31,-13 -31,-45 0,-94 29,-95 130,-196 28,-28 137,-123 140,-156 -32,3 -53,36 -72,55l-179 179c-66,66 8,21 -103,135 -27,27 -33,36 -83,18 -43,-15 -64,-10 -64,-54 0,-88 10,-79 66,-134l213 -213c15,-15 31,-22 34,-48 -34,2 -50,31 -69,51l-232 232c-53,53 -17,115 -123,79 -39,-13 -56,-9 -56,-54 0,-85 15,-80 66,-132l527 -527c34,-34 79,-66 72,-90 -28,1 -170,155 -197,184 -24,-4 -69,-20 -88,-30l-2 -63zm39 120c-43,51 -251,253 -314,317 -35,35 -136,116 -141,178 -4,56 -4,102 36,120 33,15 91,34 132,29 9,58 47,60 101,77 68,23 97,-9 126,-44 6,5 0,-1 8,10 25,34 72,57 117,57 42,0 97,-64 113,-85 118,96 146,23 279,-110 82,-82 159,-159 241,-241 60,-60 157,-137 161,-195 4,-64 1,-49 37,-83 176,-174 175,-144 173,-311 -1,-85 -59,-84 -132,-108 -59,-20 -118,-39 -179,-60 -63,-21 -126,-58 -177,-17 -83,67 -20,71 -173,71 -62,0 -183,-7 -238,2 -50,8 -235,201 -245,237 -6,21 -7,87 0,107 11,33 39,38 74,51z"/>
        </g>
       </g>
      </g>
     </g>
     <path class="fil5" d="M3582 1466c583,0 1056,473 1056,1056 0,583 -473,1056 -1056,1056 -583,0 -1056,-473 -1056,-1056 0,-583 473,-1056 1056,-1056z"/>
    </g>
   </g>
  </g>
 </g>
</svg>
